<svg width="393" height="852" viewBox="0 0 393 852" fill="none" xmlns="http://www.w3.org/2000/svg">
<g clip-path="url(#clip0_466_294)">
<rect width="393" height="852" fill="#82CAFF"/>
<path d="M369.271 602C369.271 602 369.109 602 369 602C368.891 602 368.837 602 368.729 602C351.516 605.258 265.999 751.641 368.729 752.184C368.729 752.184 368.891 752.184 369 752.184C369.109 752.184 369.163 752.184 369.271 752.184C472.001 751.641 386.484 605.258 369.271 602.054V602Z" fill="#94BE3E"/>
<path d="M6.88086 160C21.4548 160 34.3562 167.153 42.2715 178.139C43.3787 178.043 44.499 177.992 45.6309 177.992C59.5985 177.992 71.8332 185.409 78.6133 196.519C80.436 196.168 82.3181 195.982 84.2432 195.982C100.6 195.983 113.859 209.242 113.859 225.599C113.859 241.955 100.6 255.215 84.2432 255.215V255.216H-43.6338L-44.5977 255.203C-64.7889 254.692 -80.9998 238.164 -81 217.85C-81 197.213 -64.2706 180.483 -43.6338 180.482C-39.3164 180.482 -35.1705 181.217 -31.3125 182.564C-23.8899 169.113 -9.56946 160 6.88086 160Z" fill="white" fill-opacity="0.58"/>
<path d="M148.703 312C157.443 312 165.18 316.29 169.927 322.878C170.591 322.821 171.263 322.79 171.942 322.79C180.319 322.79 187.657 327.238 191.723 333.9C192.815 333.69 193.944 333.579 195.098 333.579C204.907 333.579 212.859 341.532 212.859 351.341C212.859 360.997 205.154 368.852 195.557 369.096L195.098 369.102H118.409L117.831 369.095C105.722 368.788 96.0002 358.876 96 346.693C96 334.317 106.033 324.284 118.409 324.284C120.998 324.284 123.484 324.724 125.798 325.531C130.249 317.464 138.838 312 148.703 312Z" fill="white" fill-opacity="0.22"/>
<path d="M349.605 226C364.3 226 377.308 233.212 385.288 244.288C386.404 244.192 387.534 244.141 388.675 244.141C402.757 244.141 415.093 251.618 421.929 262.819C423.767 262.466 425.664 262.279 427.605 262.279C444.097 262.28 457.466 275.648 457.466 292.14C457.466 308.631 444.097 322 427.605 322V322.001H298.675L297.702 321.988C277.344 321.473 261 304.808 261 284.326C261 263.519 277.868 246.651 298.675 246.651C303.028 246.651 307.207 247.392 311.097 248.75C318.58 235.187 333.02 226 349.605 226Z" fill="white" fill-opacity="0.58"/>
<path d="M31.6055 -7C46.2996 -6.99987 59.3076 0.212187 67.2881 11.2881C68.4043 11.1919 69.5337 11.1406 70.6748 11.1406C84.7574 11.1406 97.0927 18.6182 103.929 29.8193C105.767 29.4656 107.664 29.2793 109.605 29.2793C126.097 29.2795 139.466 42.6483 139.466 59.1396C139.466 75.631 126.097 88.9997 109.605 89V89.001H-19.3252L-20.2979 88.9883C-40.6555 88.4725 -57 71.8081 -57 51.3262C-56.9999 30.5191 -40.1322 13.6514 -19.3252 13.6514C-14.9725 13.6514 -10.7929 14.392 -6.90332 15.75C0.580459 2.18746 15.0196 -7 31.6055 -7Z" fill="white" fill-opacity="0.58"/>
<path d="M37.3041 530C37.3041 530 37.1217 530 37.0001 530C36.8785 530 36.8175 530 36.6959 530C17.4185 535.102 -78.3607 764.334 36.6959 765.184C36.6959 765.184 36.8785 765.184 37.0001 765.184C37.1217 765.184 37.1825 765.184 37.3041 765.184C152.361 764.334 56.5815 535.102 37.3041 530.085V530Z" fill="#59771B"/>
<path d="M398.352 13C414.496 13 428.788 20.9237 437.557 33.0928C438.783 32.9871 440.024 32.9307 441.278 32.9307C456.751 32.9307 470.305 41.1469 477.815 53.4541C479.834 53.0656 481.919 52.8604 484.051 52.8604C502.17 52.8604 516.859 67.5487 516.859 85.668C516.859 103.787 502.17 118.477 484.051 118.477V118.478H342.394L341.325 118.464C318.958 117.897 301 99.5877 301 77.084C301 54.223 319.533 35.6904 342.394 35.6904C347.176 35.6904 351.768 36.504 356.042 37.9961C364.264 23.0946 380.128 13 398.352 13Z" fill="white" fill-opacity="0.33"/>
<ellipse cx="196.5" cy="841.5" rx="239.5" ry="186.5" fill="#75AB3B"/>
<g filter="url(#filter0_f_466_294)">
<ellipse cx="195" cy="730" rx="55" ry="15" fill="#090909" fill-opacity="0.66"/>
</g>
<path d="M294.98 566.673C293.033 566.878 291.157 567.471 289.434 568.332C288.983 568.557 287.138 570.089 287.088 570.512C286.904 572.071 286.448 573.504 286.448 575.158C286.448 577.355 286.963 580.025 287.846 582.042C288.658 583.899 289.395 585.889 290.074 587.79C290.779 589.764 291.508 591.688 291.768 593.774C291.948 595.212 292.395 601.227 290.287 601.227" stroke="#C9C9C9" stroke-width="8" stroke-linecap="round"/>
<path d="M95 480C95.1773 487.592 96.9903 494.76 99.7849 501.803C101.278 505.567 103.172 509.11 105.415 512.485C107.202 515.175 109.039 517.925 111.149 520.376C114.827 524.649 119.621 527.809 123.898 531.446C125.262 532.606 126.522 534.019 128 535" stroke="#C9C9C9" stroke-width="8" stroke-linecap="round"/>
<path d="M271.309 409.549C276.113 408.376 287.146 424.253 289.375 427.872C290.642 431.684 288.92 430.126 288.833 431.527C310.11 460.59 304.552 505.473 275.979 527.258C277.788 528.934 280.981 525.42 283.165 525.583C327.37 532.185 355.296 579.987 305.615 604.381C301.266 606.068 294.606 607.971 290.823 604.638C291.763 594.025 291.068 583.349 289.597 572.818C289.819 571.464 294.792 567.944 294.635 567.01C294.034 563.38 286.486 569.935 285.879 571.803C288.687 593.255 288.681 615.174 279.837 635.447C283.147 646.444 286.725 658.685 287.992 670.138C290.088 689.057 277.234 695.034 260.195 694.042C241.311 692.944 234.645 682.554 228.872 666.215C228.393 664.861 226.333 656.916 225.93 656.625C213.216 657.016 199.242 657.956 186.277 657.051C184.45 657.249 181.158 655.329 179.891 656.899C175.373 668.194 170.75 683.161 159.49 689.424C149.158 695.168 131.371 695.338 120.969 689.675C109.114 683.219 106.808 670.085 119.469 663.028C120.66 653.268 123.129 643.712 125.785 634.274C113.76 614.024 111.548 589.064 114.817 565.855C86.5467 552.861 56.899 525.285 58.0315 491.843C58.335 475.324 81.4974 462.318 93.0611 476.299C92.1505 497.342 102.879 521.427 121.751 532.057C122.604 532.535 125.073 533.995 125.913 533.341L126.059 531.823C96.5693 513.581 89.0567 472.58 104.35 442.81C104.327 442.051 103.212 441.502 102.961 440.697C102.401 438.911 106.049 433.435 107.164 431.62C109.324 428.76 113.521 420.214 117.198 420.056C101.659 389.568 147.984 364.952 163.348 395.954C182.255 390.204 202.896 388.85 222.416 392.008C232.888 358.368 285.365 376.271 271.303 409.549H271.309ZM222.176 448.566C209.416 450.609 211.121 479.521 224.418 479.521C238.935 479.521 238.398 445.962 222.176 448.566ZM170.382 481.021C178.443 473.567 175.069 449.879 161.539 452.914C147.068 456.318 153.366 493.665 170.382 481.021ZM175.671 494.482C172.157 515.158 204.939 530.352 216.917 509.851C220.122 504.866 225.101 492.666 217.787 489.339C203.871 491.341 189.283 491.791 175.671 494.482Z" fill="white"/>
<path d="M222.176 448.566C238.398 445.968 238.935 479.521 224.418 479.521C211.121 479.521 209.416 450.609 222.176 448.566Z" fill="#42190C"/>
<path d="M170.382 481.021C153.366 493.676 147.074 456.312 161.544 452.914C175.069 449.879 178.443 473.567 170.382 481.021Z" fill="#42190C"/>
<path d="M175.671 494.482C189.289 491.785 203.871 491.335 217.787 489.339C225.101 492.666 221.199 508.015 218 513C206.022 533.506 172.151 515.157 175.671 494.482ZM207.42 501.889C202.686 501.621 183.463 507.762 192.43 513.926C203.982 523.19 225.545 502.321 207.42 501.889Z" fill="#42190C"/>
<path d="M207.42 501.889C225.55 502.327 203.97 523.19 192.43 513.926C183.469 507.768 202.668 501.627 207.42 501.889Z" fill="#CB3300"/>
<path d="M274.267 408.363L117.292 416.964C115.952 417.037 114.732 417.757 114.02 418.895L102.579 437.172C100.807 440.002 102.955 443.654 106.289 443.482L287.803 434.126C291.099 433.956 292.871 430.178 290.895 427.534L277.797 410.013C276.971 408.907 275.645 408.288 274.267 408.363Z" fill="#FFB433"/>
<path d="M-72.8881 852.195C-79.3461 849.183 -82.7591 837.941 -80.0822 831.014C-77.4388 824.088 -69.1739 820.24 -62.5487 822.816C-63.8871 809.934 -47.9597 799.327 -37.5199 806.119C-36.9511 794.341 -20.2875 788.084 -12.7922 796.817C-8.40886 787.783 5.87895 787.113 10.965 795.713C14.7461 785.072 31.8112 784.537 36.228 794.876C37.4326 789.255 43.1879 785.173 48.5751 786.143C53.9623 787.147 58.078 793.036 57.4088 798.758C60.3533 793.17 66.7444 789.824 72.7339 790.794C78.7234 791.764 83.9098 796.917 85.1479 803.208C88.4271 798.657 95.1193 797.386 99.7034 800.431C104.288 803.476 106.094 810.402 103.618 815.522C108.872 813.213 115.43 810.77 119.111 815.354C122.791 819.939 123.26 827.066 120.215 832.152C124.799 831.048 129.919 834.528 130.856 839.413C131.759 844.298 128.313 851.325 123.661 852.161H-72.8881V852.195Z" fill="#8CD472"/>
<path d="M275.112 849C268.654 846.225 265.241 835.864 267.918 829.482C270.561 823.099 278.826 819.553 285.451 821.927C284.113 810.055 300.04 800.281 310.48 806.54C311.049 795.686 327.713 789.92 335.208 797.968C339.591 789.643 353.879 789.026 358.965 796.951C362.746 787.145 379.811 786.652 384.228 796.18C385.433 790.999 391.188 787.238 396.575 788.132C401.962 789.057 406.078 794.484 405.409 799.757C408.353 794.607 414.744 791.524 420.734 792.418C426.723 793.312 431.91 798.061 433.148 803.858C436.427 799.664 443.119 798.492 447.703 801.298C452.288 804.104 454.094 810.487 451.618 815.205C456.872 813.077 463.43 810.826 467.111 815.051C470.791 819.275 471.26 825.843 468.215 830.53C472.799 829.512 477.919 832.719 478.856 837.221C479.759 841.723 476.313 848.198 471.661 848.969H275.112V849Z" fill="#8CD472"/>
</g>
<defs>
<filter id="filter0_f_466_294" x="40" y="615" width="310" height="230" filterUnits="userSpaceOnUse" color-interpolation-filters="sRGB">
<feFlood flood-opacity="0" result="BackgroundImageFix"/>
<feBlend mode="normal" in="SourceGraphic" in2="BackgroundImageFix" result="shape"/>
<feGaussianBlur stdDeviation="50" result="effect1_foregroundBlur_466_294"/>
</filter>
<clipPath id="clip0_466_294">
<rect width="393" height="852" fill="white"/>
</clipPath>
</defs>
</svg>
