<svg width="393" height="852" viewBox="0 0 393 852" fill="none" xmlns="http://www.w3.org/2000/svg">
<g clip-path="url(#clip0_193_112)">
<rect width="393" height="852" fill="#A3DD2C"/>
<path d="M82.5549 545.339C41.8078 540.115 6.76524 529.512 -32.6936 571.404C-56.1966 596.355 -70.4457 618.907 -74.3446 649.783C-80.8861 701.587 -24.097 683.304 8.09928 704.782C31.6716 720.508 -58.2075 808.871 -32.6936 821.5C5.51014 840.41 142.889 844.018 188.466 802C207.026 784.89 228.7 768.531 238.966 745.05C252.525 714.041 254.412 651.398 246.966 626.5C238.848 599.351 219.664 597.308 198.966 583.5C163.895 560.104 126.912 551.026 82.5549 545.339Z" fill="#84B51D" fill-opacity="0.42"/>
<path d="M162.06 230.608C143.717 267.366 122.171 296.966 148.742 348.014C164.568 378.42 181.174 399.297 209.046 413.141C255.811 436.368 257.237 376.725 288.116 353.392C310.723 336.308 325.683 329.583 346.006 309.647C376.436 279.795 434.424 274.739 409.747 217.872C399.699 194.715 388.204 181.915 369.411 164.492C344.592 141.484 324.981 128.278 299.02 127.114C270.711 125.845 268.04 150.524 248.189 165.524C214.554 190.941 182.029 190.594 162.06 230.608Z" fill="#84B51D" fill-opacity="0.42"/>
<path d="M-64.0669 47.1876C-82.4106 83.9453 -103.956 113.546 -77.3855 164.594C-61.5592 194.999 -45.4062 144.156 -17.5336 158C29.2316 181.227 31.1098 193.305 61.9883 169.971C84.5957 152.888 99.5556 146.162 119.878 126.226C150.309 96.3746 208.296 91.3188 183.62 34.4516C173.572 11.2943 162.077 -1.50542 143.283 -18.9283C118.464 -41.937 98.8536 -55.1424 72.8924 -56.3066C44.584 -57.5759 41.9126 -32.8965 22.0621 -17.8964C-11.5733 7.52052 -44.0981 7.17357 -64.0669 47.1876Z" fill="#84B51D" fill-opacity="0.42"/>
<path d="M106.263 684C104.433 682.994 103.473 679.254 104.223 676.957C104.973 674.65 107.313 673.37 109.193 674.234C108.823 669.947 113.333 666.415 116.283 668.679C116.443 664.764 121.173 662.675 123.283 665.584C124.523 662.577 128.563 662.358 130.013 665.223C131.083 661.691 135.923 661.505 137.163 664.95C137.503 663.08 139.133 661.713 140.663 662.052C142.183 662.38 143.353 664.348 143.163 666.251C143.993 664.381 145.803 663.277 147.503 663.594C149.203 663.911 150.673 665.639 151.023 667.717C151.953 666.196 153.853 665.77 155.153 666.787C156.453 667.804 156.963 670.111 156.263 671.807C157.753 671.041 159.613 670.232 160.653 671.752C161.693 673.283 161.823 675.656 160.963 677.34C162.263 676.968 163.713 678.138 163.973 679.757C164.233 681.386 163.253 683.727 161.933 684H106.253H106.263Z" fill="#7CB340"/>
<path d="M145.833 684C144.003 682.994 143.043 679.254 143.793 676.957C144.543 674.65 146.883 673.37 148.763 674.234C148.393 669.947 152.903 666.415 155.853 668.679C156.013 664.764 160.743 662.675 162.853 665.584C164.093 662.577 168.133 662.358 169.583 665.223C170.653 661.691 175.493 661.505 176.733 664.95C177.073 663.08 178.703 661.713 180.233 662.052C181.753 662.38 182.923 664.348 182.733 666.251C183.563 664.381 185.373 663.277 187.073 663.594C188.773 663.911 190.243 665.639 190.593 667.717C191.523 666.196 193.423 665.77 194.723 666.787C196.023 667.804 196.533 670.111 195.833 671.807C197.323 671.041 199.183 670.232 200.223 671.752C201.263 673.283 201.393 675.656 200.533 677.34C201.833 676.968 203.283 678.138 203.543 679.757C203.803 681.386 202.823 683.727 201.503 684H145.823H145.833Z" fill="#5FA845"/>
<path d="M110.126 377.29H104.666V391.74H110.126V377.29Z" fill="#BA7E36"/>
<path d="M107.546 347.9V347.88C107.546 347.88 107.506 347.88 107.496 347.88C107.476 347.88 107.456 347.88 107.446 347.88V347.9C104.066 348.61 87.2763 381.23 107.446 381.35C107.446 381.35 107.476 381.35 107.496 381.35C107.516 381.35 107.526 381.35 107.546 381.35C127.716 381.23 110.926 348.61 107.546 347.9Z" fill="#5FA845"/>
<mask id="mask0_193_112" style="mask-type:luminance" maskUnits="userSpaceOnUse" x="97" y="347" width="21" height="35">
<path d="M107.546 347.9V347.88C107.546 347.88 107.506 347.88 107.496 347.88C107.476 347.88 107.456 347.88 107.446 347.88V347.9C104.066 348.61 87.2763 381.23 107.446 381.35C107.446 381.35 107.476 381.35 107.496 381.35C107.516 381.35 107.526 381.35 107.546 381.35C127.716 381.23 110.926 348.61 107.546 347.9Z" fill="white"/>
</mask>
<g mask="url(#mask0_193_112)">
<g style="mix-blend-mode:multiply">
<path d="M107.546 347.9C107.546 347.9 119.696 376.28 107.546 381.35C115.346 383.37 119.086 376.95 119.226 371.54C119.526 359.37 107.546 347.9 107.546 347.9Z" fill="#EDEDED"/>
</g>
</g>
<path d="M91.3063 377.29H85.8463V391.74H91.3063V377.29Z" fill="#BA7E36"/>
<path d="M88.6363 331.43V331.4C88.6363 331.4 88.5963 331.4 88.5763 331.41C88.5563 331.41 88.5363 331.4 88.5163 331.4V331.43C84.6763 332.49 65.6263 381.17 88.5163 381.35C88.5163 381.35 88.5563 381.35 88.5763 381.35C88.5963 381.35 88.6163 381.35 88.6363 381.35C111.526 381.17 92.4763 332.49 88.6363 331.43Z" fill="#94BE3E"/>
<mask id="mask1_193_112" style="mask-type:luminance" maskUnits="userSpaceOnUse" x="77" y="331" width="23" height="51">
<path d="M88.6363 331.43V331.4C88.6363 331.4 88.5963 331.4 88.5763 331.41C88.5563 331.41 88.5363 331.4 88.5163 331.4V331.43C84.6763 332.49 65.6263 381.17 88.5163 381.35C88.5163 381.35 88.5563 381.35 88.5763 381.35C88.5963 381.35 88.6163 381.35 88.6363 381.35C111.526 381.17 92.4763 332.49 88.6363 331.43Z" fill="white"/>
</mask>
<g mask="url(#mask1_193_112)">
<g style="mix-blend-mode:multiply">
<path d="M88.6363 331.43C88.6363 331.43 102.426 373.79 88.6363 381.35C97.4963 384.37 101.736 374.78 101.886 366.72C102.226 348.56 88.6363 331.43 88.6363 331.43Z" fill="#EDEDED"/>
</g>
</g>
<path d="M-0.0336401 396.56H98.4664C129.906 396.56 123.206 425.84 110.126 427.14C101.506 428 98.9864 435.6 98.9864 440.11C98.9864 445.8 105.056 451.99 112.146 451.99C143.076 451.99 151.696 494.04 113.156 494.04C84.6864 494.04 -0.0436401 495.95 -0.0436401 495.95V396.57L-0.0336401 396.56Z" fill="#C4E1F8"/>
<path d="M451.955 773H342.015C306.923 773 314.401 802.165 329 803.46C338.621 804.317 341.434 811.887 341.434 816.379C341.434 822.047 334.659 828.212 326.746 828.212C292.223 828.212 282.602 870.097 325.618 870.097C357.395 870.097 451.966 872 451.966 872V773.01L451.955 773Z" fill="#C4E1F8"/>
<path d="M112.926 500.97C110.996 500.07 109.986 496.71 110.776 494.64C111.566 492.57 114.036 491.42 116.016 492.19C115.616 488.34 120.376 485.17 123.496 487.2C123.666 483.68 128.646 481.81 130.886 484.42C132.196 481.72 136.466 481.52 137.986 484.09C139.116 480.91 144.216 480.75 145.536 483.84C145.896 482.16 147.616 480.94 149.226 481.23C150.836 481.53 152.066 483.29 151.866 485C152.746 483.33 154.656 482.33 156.446 482.62C158.236 482.91 159.786 484.45 160.156 486.33C161.136 484.97 163.136 484.59 164.506 485.5C165.876 486.41 166.416 488.48 165.676 490.01C167.246 489.32 169.206 488.59 170.306 489.96C171.406 491.33 171.546 493.46 170.636 494.98C172.006 494.65 173.536 495.69 173.816 497.15C174.086 498.61 173.056 500.71 171.666 500.96H112.926V500.97Z" fill="#7CB340"/>
<path d="M66.9163 500.97C64.9863 500.07 63.9663 496.71 64.7663 494.64C65.5563 492.57 68.0263 491.42 70.0063 492.19C69.6063 488.34 74.3663 485.17 77.4863 487.2C77.6563 483.68 82.6363 481.81 84.8763 484.42C86.1863 481.72 90.4563 481.52 91.9763 484.09C93.1063 480.91 98.2063 480.75 99.5263 483.84C99.8863 482.16 101.606 480.94 103.216 481.23C104.826 481.53 106.056 483.29 105.856 485C106.736 483.33 108.646 482.33 110.436 482.62C112.226 482.91 113.776 484.45 114.146 486.33C115.126 484.97 117.126 484.59 118.496 485.5C119.866 486.41 120.406 488.48 119.666 490.01C121.236 489.32 123.196 488.59 124.296 489.96C125.396 491.33 125.536 493.46 124.626 494.98C125.996 494.65 127.526 495.69 127.806 497.15C128.076 498.61 127.046 500.71 125.656 500.96H66.9163V500.97Z" fill="#5FA845"/>
<path d="M210.219 188.27H268.256L253.03 174H223.089L210.219 188.27Z" fill="#4D9FDC"/>
<mask id="mask2_193_112" style="mask-type:luminance" maskUnits="userSpaceOnUse" x="210" y="174" width="59" height="15">
<path d="M210.219 188.27H268.256L253.03 174H223.089L210.219 188.27Z" fill="white"/>
</mask>
<g mask="url(#mask2_193_112)">
<path d="M268.319 176.177H208.971V177.284H268.319V176.177Z" fill="#2D8BCE"/>
<path d="M268.319 180.327H208.971V181.434H268.319V180.327Z" fill="#2D8BCE"/>
<path d="M268.319 184.477H208.971V185.584H268.319V184.477Z" fill="#2D8BCE"/>
</g>
<path d="M273.819 219.077H270.216V233.221H273.819V219.077Z" fill="#BA7E36"/>
<path d="M271.96 190.269C271.96 190.269 271.922 190.269 271.909 190.269C271.896 190.269 271.871 190.269 271.858 190.269C268.548 190.982 252.088 222.947 271.858 223.075C271.858 223.075 271.896 223.075 271.909 223.075C271.922 223.075 271.947 223.075 271.96 223.075C291.73 222.947 275.27 190.982 271.96 190.282V190.269Z" fill="#94BE3E"/>
<mask id="mask3_193_112" style="mask-type:luminance" maskUnits="userSpaceOnUse" x="262" y="190" width="20" height="34">
<path d="M271.96 190.269C271.96 190.269 271.922 190.269 271.909 190.269C271.896 190.269 271.871 190.269 271.858 190.269C268.548 190.982 252.088 222.947 271.858 223.075C271.858 223.075 271.896 223.075 271.909 223.075C271.922 223.075 271.947 223.075 271.96 223.075C291.73 222.947 275.27 190.982 271.96 190.282V190.269Z" fill="white"/>
</mask>
<g mask="url(#mask3_193_112)">
<g style="mix-blend-mode:multiply">
<path d="M271.96 190.269C271.96 190.269 283.876 218.084 271.96 223.062C279.611 225.048 283.277 218.746 283.404 213.451C283.697 201.522 271.96 190.269 271.96 190.269Z" fill="#EDEDED"/>
</g>
</g>
<path d="M265.099 210.561H208.679V233.068H265.099V210.561Z" fill="#F4F2E2"/>
<mask id="mask4_193_112" style="mask-type:luminance" maskUnits="userSpaceOnUse" x="208" y="210" width="58" height="24">
<path d="M265.099 210.561H208.679V233.068H265.099V210.561Z" fill="white"/>
</mask>
<g mask="url(#mask4_193_112)">
<path d="M268.612 208.677H235.119V234.939H268.612V208.677Z" fill="#E1DFC4"/>
</g>
<path d="M213.274 204.858H263.736V188.271L251.617 177.017L239.346 188.271H213.274V204.858Z" fill="#F4F2E2"/>
<mask id="mask5_193_112" style="mask-type:luminance" maskUnits="userSpaceOnUse" x="213" y="177" width="51" height="28">
<path d="M213.274 204.858H263.736V188.271L251.617 177.017L239.346 188.271H213.274V204.858Z" fill="white"/>
</mask>
<g mask="url(#mask5_193_112)">
<path d="M266.804 174H238.009V207.047H266.804V174Z" fill="#E1DFC4"/>
</g>
<path d="M256.162 186.794H247.225V193.146H256.162V186.794Z" fill="#9ECFF3"/>
<path d="M256.162 218.759H247.225V233.055H256.162V218.759Z" fill="#9ECFF3"/>
<path d="M233.973 191.975H219.346V199.753H233.973V191.975Z" fill="#C4E1F8"/>
<path d="M228.678 216.9H214.051V224.678H228.678V216.9Z" fill="#C4E1F8"/>
<path d="M234.826 196.889H209.557V204.934H234.826V196.889Z" fill="#F4F2E2"/>
<path d="M208.971 202.783L202.11 211.897H271.858L264.806 202.783H208.971Z" fill="#4D9FDC"/>
<mask id="mask6_193_112" style="mask-type:luminance" maskUnits="userSpaceOnUse" x="202" y="202" width="70" height="10">
<path d="M208.971 202.783L202.11 211.897H271.858L264.806 202.783H208.971Z" fill="white"/>
</mask>
<g mask="url(#mask6_193_112)">
<path d="M272.253 206.678H201.728V207.989H272.253V206.678Z" fill="#2D8BCE"/>
</g>
<path d="M195.516 239C194.281 238.376 193.632 236.085 194.141 234.659C194.65 233.233 196.216 232.444 197.489 232.979C197.234 230.344 200.277 228.167 202.263 229.554C202.377 227.136 205.547 225.863 206.986 227.645C207.813 225.786 210.55 225.659 211.517 227.416C212.243 225.239 215.489 225.124 216.329 227.25C216.559 226.092 217.653 225.264 218.685 225.468C219.716 225.672 220.505 226.881 220.365 228.052C220.925 226.906 222.147 226.219 223.293 226.423C224.439 226.614 225.432 227.683 225.661 228.969C226.284 228.039 227.57 227.772 228.436 228.396C229.314 229.02 229.658 230.445 229.187 231.489C230.193 231.018 231.44 230.522 232.14 231.451C232.84 232.393 232.93 233.857 232.357 234.901C233.235 234.672 234.215 235.385 234.381 236.39C234.559 237.396 233.897 238.835 233.006 239H195.503H195.516Z" fill="#5FA845"/>
<path d="M32.7335 357.21H78.3235L66.3635 346H42.8434L32.7335 357.21Z" fill="#EF4F1A"/>
<mask id="mask7_193_112" style="mask-type:luminance" maskUnits="userSpaceOnUse" x="32" y="346" width="47" height="12">
<path d="M32.7335 357.21H78.3235L66.3635 346H42.8434L32.7335 357.21Z" fill="white"/>
</mask>
<g mask="url(#mask7_193_112)">
<path d="M78.3734 347.71H31.7534V348.58H78.3734V347.71Z" fill="#D68469"/>
<path d="M78.3734 350.97H31.7534V351.84H78.3734V350.97Z" fill="#D68469"/>
<path d="M78.3734 354.23H31.7534V355.1H78.3734V354.23Z" fill="#D68469"/>
</g>
<path d="M82.6935 381.41H79.8635V392.52H82.6935V381.41Z" fill="#BA7E36"/>
<path d="M81.2335 358.78C81.2335 358.78 81.2035 358.78 81.1935 358.78C81.1835 358.78 81.1635 358.78 81.1535 358.78C78.5535 359.34 65.6235 384.45 81.1535 384.55C81.1535 384.55 81.1835 384.55 81.1935 384.55C81.2035 384.55 81.2235 384.55 81.2335 384.55C96.7635 384.45 83.8335 359.34 81.2335 358.79V358.78Z" fill="#94BE3E"/>
<mask id="mask8_193_112" style="mask-type:luminance" maskUnits="userSpaceOnUse" x="73" y="358" width="16" height="27">
<path d="M81.2335 358.78C81.2335 358.78 81.2035 358.78 81.1935 358.78C81.1835 358.78 81.1635 358.78 81.1535 358.78C78.5535 359.34 65.6235 384.45 81.1535 384.55C81.1535 384.55 81.1835 384.55 81.1935 384.55C81.2035 384.55 81.2235 384.55 81.2335 384.55C96.7635 384.45 83.8335 359.34 81.2335 358.79V358.78Z" fill="white"/>
</mask>
<g mask="url(#mask8_193_112)">
<g style="mix-blend-mode:multiply">
<path d="M81.2335 358.78C81.2335 358.78 90.5935 380.63 81.2335 384.54C87.2435 386.1 90.1234 381.15 90.2234 376.99C90.4534 367.62 81.2335 358.78 81.2335 358.78Z" fill="#EDEDED"/>
</g>
</g>
<path d="M75.8434 374.72H31.5234V392.4H75.8434V374.72Z" fill="#F4F2E2"/>
<mask id="mask9_193_112" style="mask-type:luminance" maskUnits="userSpaceOnUse" x="31" y="374" width="45" height="19">
<path d="M75.8434 374.72H31.5234V392.4H75.8434V374.72Z" fill="white"/>
</mask>
<g mask="url(#mask9_193_112)">
<path d="M78.6035 373.24H52.2935V393.87H78.6035V373.24Z" fill="#E1DFC4"/>
</g>
<path d="M35.1334 370.24H74.7734V357.21L65.2534 348.37L55.6134 357.21H35.1334V370.24Z" fill="#F4F2E2"/>
<mask id="mask10_193_112" style="mask-type:luminance" maskUnits="userSpaceOnUse" x="35" y="348" width="40" height="23">
<path d="M35.1334 370.24H74.7734V357.21L65.2534 348.37L55.6134 357.21H35.1334V370.24Z" fill="white"/>
</mask>
<g mask="url(#mask10_193_112)">
<path d="M77.1834 346H54.5634V371.96H77.1834V346Z" fill="#E1DFC4"/>
</g>
<path d="M68.8235 356.05H61.8035V361.04H68.8235V356.05Z" fill="#CA4828"/>
<path d="M68.8235 381.16H61.8035V392.39H68.8235V381.16Z" fill="#CA4828"/>
<path d="M51.3935 360.12H39.9034V366.23H51.3935V360.12Z" fill="#C4E1F8"/>
<path d="M47.2335 379.7H35.7435V385.81H47.2335V379.7Z" fill="#C4E1F8"/>
<path d="M52.0635 363.98H32.2135V370.3H52.0635V363.98Z" fill="#F4F2E2"/>
<path d="M31.7534 368.61L26.3635 375.77H81.1534L75.6135 368.61H31.7534Z" fill="#EF4F1A"/>
<mask id="mask11_193_112" style="mask-type:luminance" maskUnits="userSpaceOnUse" x="26" y="368" width="56" height="8">
<path d="M31.7534 368.61L26.3635 375.77H81.1534L75.6135 368.61H31.7534Z" fill="white"/>
</mask>
<g mask="url(#mask11_193_112)">
<path d="M81.4635 371.67H26.0635V372.7H81.4635V371.67Z" fill="#D68469"/>
</g>
<path d="M21.1834 397.06C20.2134 396.57 19.7035 394.77 20.1035 393.65C20.5035 392.53 21.7335 391.91 22.7335 392.33C22.5335 390.26 24.9235 388.55 26.4835 389.64C26.5735 387.74 29.0635 386.74 30.1935 388.14C30.8435 386.68 32.9934 386.58 33.7534 387.96C34.3234 386.25 36.8734 386.16 37.5334 387.83C37.7134 386.92 38.5735 386.27 39.3835 386.43C40.1935 386.59 40.8135 387.54 40.7035 388.46C41.1435 387.56 42.1034 387.02 43.0034 387.18C43.9034 387.33 44.6835 388.17 44.8635 389.18C45.3535 388.45 46.3635 388.24 47.0435 388.73C47.7335 389.22 48.0035 390.34 47.6335 391.16C48.4235 390.79 49.4035 390.4 49.9535 391.13C50.5035 391.87 50.5734 393.02 50.1234 393.84C50.8134 393.66 51.5835 394.22 51.7135 395.01C51.8535 395.8 51.3335 396.93 50.6335 397.06H21.1735H21.1834Z" fill="#5FA845"/>
<path d="M265.366 336.348H440.923C440.923 336.348 377.128 260 360.939 260C344.749 260 265.35 336.348 265.35 336.348H265.366Z" fill="#5FA845"/>
<mask id="mask12_193_112" style="mask-type:luminance" maskUnits="userSpaceOnUse" x="265" y="260" width="176" height="77">
<path d="M265.366 336.348H440.923C440.923 336.348 377.128 260 360.939 260C344.749 260 265.35 336.348 265.35 336.348H265.366Z" fill="white"/>
</mask>
<g mask="url(#mask12_193_112)">
<path d="M352.322 251.384L393.223 341.17H450.314C450.314 341.17 364.259 241.771 352.338 251.384" fill="#4D9D44"/>
</g>
<path d="M173.982 336.348H349.539C349.539 336.348 285.745 260 269.555 260C253.366 260 173.966 336.348 173.966 336.348H173.982Z" fill="#5FA845"/>
<mask id="mask13_193_112" style="mask-type:luminance" maskUnits="userSpaceOnUse" x="173" y="260" width="177" height="77">
<path d="M173.982 336.348H349.539C349.539 336.348 285.745 260 269.555 260C253.366 260 173.966 336.348 173.966 336.348H173.982Z" fill="white"/>
</mask>
<g mask="url(#mask13_193_112)">
<path d="M260.923 251.384L301.824 341.17H358.915C358.915 341.17 272.86 241.771 260.939 251.384" fill="#4D9D44"/>
</g>
<path d="M321.002 342.372C318.599 341.17 317.334 336.68 318.314 333.897C319.294 331.13 322.377 329.581 324.844 330.625C324.354 325.47 330.282 321.233 334.156 323.953C334.361 319.241 340.575 316.743 343.358 320.237C344.986 316.617 350.298 316.348 352.195 319.795C353.603 315.542 359.958 315.32 361.603 319.463C362.045 317.202 364.195 315.573 366.203 315.968C368.211 316.364 369.745 318.719 369.492 321.012C370.583 318.767 372.97 317.439 375.199 317.818C377.429 318.198 379.357 320.269 379.832 322.783C381.049 320.964 383.547 320.443 385.255 321.66C386.962 322.878 387.626 325.66 386.709 327.7C388.67 326.783 391.105 325.802 392.48 327.636C393.84 329.47 394.014 332.332 392.891 334.356C394.599 333.913 396.512 335.32 396.859 337.265C397.207 339.225 395.911 342.04 394.172 342.356H320.986L321.002 342.372Z" fill="#7CB340"/>
<path d="M373.018 342.372C370.614 341.17 369.35 336.68 370.33 333.897C371.31 331.115 374.393 329.581 376.859 330.625C376.369 325.47 382.298 321.233 386.172 323.953C386.377 319.241 392.591 316.743 395.373 320.237C397.002 316.617 402.314 316.348 404.211 319.795C405.618 315.542 411.974 315.32 413.618 319.463C414.061 317.202 416.211 315.573 418.219 315.968C420.227 316.364 421.761 318.719 421.508 321.012C422.599 318.767 424.986 317.439 427.215 317.818C429.444 318.198 431.373 320.269 431.848 322.783C433.065 320.964 435.563 320.443 437.27 321.66C438.978 322.878 439.642 325.66 438.725 327.7C440.686 326.783 443.12 325.802 444.496 327.636C445.855 329.47 446.029 332.332 444.907 334.356C446.614 333.913 448.527 335.32 448.875 337.265C449.223 339.21 447.927 342.04 446.187 342.356H373.002L373.018 342.372Z" fill="#7CB340"/>
<path d="M322.441 345.123H315.31V364H322.441V345.123Z" fill="#BA7E36"/>
<path d="M318.946 306.719C318.946 306.719 318.899 306.719 318.867 306.719C318.836 306.719 318.82 306.719 318.788 306.719C313.776 307.668 288.875 350.292 318.788 350.45C318.788 350.45 318.836 350.45 318.867 350.45C318.899 350.45 318.915 350.45 318.946 350.45C348.859 350.292 323.958 307.668 318.946 306.735V306.719Z" fill="#94BE3E"/>
<mask id="mask14_193_112" style="mask-type:luminance" maskUnits="userSpaceOnUse" x="304" y="306" width="30" height="45">
<path d="M318.946 306.719C318.946 306.719 318.899 306.719 318.867 306.719C318.836 306.719 318.82 306.719 318.788 306.719C313.776 307.668 288.875 350.292 318.788 350.45C318.788 350.45 318.836 350.45 318.867 350.45C318.899 350.45 318.915 350.45 318.946 350.45C348.859 350.292 323.958 307.668 318.946 306.735V306.719Z" fill="white"/>
</mask>
<g mask="url(#mask14_193_112)">
<g style="mix-blend-mode:multiply">
<path d="M318.946 306.719C318.946 306.719 336.97 343.81 318.946 350.435C330.52 353.075 336.069 344.68 336.259 337.612C336.701 321.707 318.946 306.719 318.946 306.719Z" fill="#EDEDED"/>
</g>
</g>
<path d="M292.622 345.123H285.492V364H292.622V345.123Z" fill="#BA7E36"/>
<path d="M289.128 306.719C289.128 306.719 289.081 306.719 289.049 306.719C289.018 306.719 289.002 306.719 288.97 306.719C283.958 307.668 259.057 350.292 288.97 350.45C288.97 350.45 289.018 350.45 289.049 350.45C289.081 350.45 289.097 350.45 289.128 350.45C319.041 350.292 294.14 307.668 289.128 306.735V306.719Z" fill="#94BE3E"/>
<mask id="mask15_193_112" style="mask-type:luminance" maskUnits="userSpaceOnUse" x="274" y="306" width="30" height="45">
<path d="M289.128 306.719C289.128 306.719 289.081 306.719 289.049 306.719C289.018 306.719 289.002 306.719 288.97 306.719C283.958 307.668 259.057 350.292 288.97 350.45C288.97 350.45 289.018 350.45 289.049 350.45C289.081 350.45 289.097 350.45 289.128 350.45C319.041 350.292 294.14 307.668 289.128 306.735V306.719Z" fill="white"/>
</mask>
<g mask="url(#mask15_193_112)">
<g style="mix-blend-mode:multiply">
<path d="M289.128 306.719C289.128 306.719 307.152 343.81 289.128 350.435C300.701 353.075 306.251 344.68 306.441 337.612C306.883 321.707 289.128 306.719 289.128 306.719Z" fill="#EDEDED"/>
</g>
</g>
<path d="M265.366 336.348H440.923C440.923 336.348 377.128 260 360.939 260C344.749 260 265.35 336.348 265.35 336.348H265.366Z" fill="#5FA845"/>
<mask id="mask16_193_112" style="mask-type:luminance" maskUnits="userSpaceOnUse" x="265" y="260" width="176" height="77">
<path d="M265.366 336.348H440.923C440.923 336.348 377.128 260 360.939 260C344.749 260 265.35 336.348 265.35 336.348H265.366Z" fill="white"/>
</mask>
<g mask="url(#mask16_193_112)">
<path d="M352.322 251.384L393.223 341.17H450.314C450.314 341.17 364.259 241.771 352.338 251.384" fill="#4D9D44"/>
</g>
<path d="M-19.0179 878.348H156.539C156.539 878.348 92.7449 802 76.5552 802C60.3655 802 -19.0336 878.348 -19.0336 878.348H-19.0179Z" fill="#5FA845"/>
<mask id="mask17_193_112" style="mask-type:luminance" maskUnits="userSpaceOnUse" x="-20" y="802" width="177" height="77">
<path d="M-19.0179 878.348H156.539C156.539 878.348 92.7449 802 76.5552 802C60.3655 802 -19.0336 878.348 -19.0336 878.348H-19.0179Z" fill="white"/>
</mask>
<g mask="url(#mask17_193_112)">
<path d="M67.9386 793.384L108.84 883.17H165.931C165.931 883.17 79.8754 783.771 67.9544 793.384" fill="#4D9D44"/>
</g>
<path d="M173.982 336.348H349.539C349.539 336.348 285.745 260 269.555 260C253.366 260 173.966 336.348 173.966 336.348H173.982Z" fill="#5FA845"/>
<mask id="mask18_193_112" style="mask-type:luminance" maskUnits="userSpaceOnUse" x="173" y="260" width="177" height="77">
<path d="M173.982 336.348H349.539C349.539 336.348 285.745 260 269.555 260C253.366 260 173.966 336.348 173.966 336.348H173.982Z" fill="white"/>
</mask>
<g mask="url(#mask18_193_112)">
<path d="M260.923 251.384L301.824 341.17H358.915C358.915 341.17 272.86 241.771 260.939 251.384" fill="#4D9D44"/>
</g>
<path d="M321.002 342.372C318.599 341.17 317.334 336.68 318.314 333.897C319.294 331.13 322.377 329.581 324.844 330.625C324.354 325.47 330.282 321.233 334.156 323.953C334.361 319.241 340.575 316.743 343.358 320.237C344.986 316.617 350.298 316.348 352.195 319.795C353.603 315.542 359.958 315.32 361.603 319.463C362.045 317.202 364.195 315.573 366.203 315.968C368.211 316.364 369.745 318.719 369.492 321.012C370.583 318.767 372.97 317.439 375.199 317.818C377.429 318.198 379.357 320.269 379.832 322.783C381.049 320.964 383.547 320.443 385.255 321.66C386.962 322.878 387.626 325.66 386.709 327.7C388.67 326.783 391.105 325.802 392.48 327.636C393.84 329.47 394.014 332.332 392.891 334.356C394.599 333.913 396.512 335.32 396.859 337.265C397.207 339.225 395.911 342.04 394.172 342.356H320.986L321.002 342.372Z" fill="#7CB340"/>
<path d="M373.018 342.372C370.614 341.17 369.35 336.68 370.33 333.897C371.31 331.115 374.393 329.581 376.859 330.625C376.369 325.47 382.298 321.233 386.172 323.953C386.377 319.241 392.591 316.743 395.373 320.237C397.002 316.617 402.314 316.348 404.211 319.795C405.618 315.542 411.974 315.32 413.618 319.463C414.061 317.202 416.211 315.573 418.219 315.968C420.227 316.364 421.761 318.719 421.508 321.012C422.599 318.767 424.986 317.439 427.215 317.818C429.444 318.198 431.373 320.269 431.848 322.783C433.065 320.964 435.563 320.443 437.27 321.66C438.978 322.878 439.642 325.66 438.725 327.7C440.686 326.783 443.12 325.802 444.496 327.636C445.855 329.47 446.029 332.332 444.907 334.356C446.614 333.913 448.527 335.32 448.875 337.265C449.223 339.21 447.927 342.04 446.187 342.356H373.002L373.018 342.372Z" fill="#7CB340"/>
<path d="M318.946 306.719C318.946 306.719 318.899 306.719 318.867 306.719C318.836 306.719 318.82 306.719 318.788 306.719C313.776 307.668 288.875 350.292 318.788 350.45C318.788 350.45 318.836 350.45 318.867 350.45C318.899 350.45 318.915 350.45 318.946 350.45C348.859 350.292 323.958 307.668 318.946 306.735V306.719Z" fill="#94BE3E"/>
<mask id="mask19_193_112" style="mask-type:luminance" maskUnits="userSpaceOnUse" x="304" y="306" width="30" height="45">
<path d="M318.946 306.719C318.946 306.719 318.899 306.719 318.867 306.719C318.836 306.719 318.82 306.719 318.788 306.719C313.776 307.668 288.875 350.292 318.788 350.45C318.788 350.45 318.836 350.45 318.867 350.45C318.899 350.45 318.915 350.45 318.946 350.45C348.859 350.292 323.958 307.668 318.946 306.735V306.719Z" fill="white"/>
</mask>
<g mask="url(#mask19_193_112)">
<g style="mix-blend-mode:multiply">
<path d="M318.946 306.719C318.946 306.719 336.97 343.81 318.946 350.435C330.52 353.075 336.069 344.68 336.259 337.612C336.701 321.707 318.946 306.719 318.946 306.719Z" fill="#EDEDED"/>
</g>
</g>
<path d="M289.128 306.719C289.128 306.719 289.081 306.719 289.049 306.719C289.018 306.719 289.002 306.719 288.97 306.719C283.958 307.668 259.057 350.292 288.97 350.45C288.97 350.45 289.018 350.45 289.049 350.45C289.081 350.45 289.097 350.45 289.128 350.45C319.041 350.292 294.14 307.668 289.128 306.735V306.719Z" fill="#94BE3E"/>
<mask id="mask20_193_112" style="mask-type:luminance" maskUnits="userSpaceOnUse" x="274" y="306" width="30" height="45">
<path d="M289.128 306.719C289.128 306.719 289.081 306.719 289.049 306.719C289.018 306.719 289.002 306.719 288.97 306.719C283.958 307.668 259.057 350.292 288.97 350.45C288.97 350.45 289.018 350.45 289.049 350.45C289.081 350.45 289.097 350.45 289.128 350.45C319.041 350.292 294.14 307.668 289.128 306.735V306.719Z" fill="white"/>
</mask>
<g mask="url(#mask20_193_112)">
<g style="mix-blend-mode:multiply">
<path d="M289.128 306.719C289.128 306.719 307.152 343.81 289.128 350.435C300.701 353.075 306.251 344.68 306.441 337.612C306.883 321.707 289.128 306.719 289.128 306.719Z" fill="#EDEDED"/>
</g>
</g>
<path d="M300.099 490.403H292.968V509.281H300.099V490.403Z" fill="#BA7E36"/>
<path d="M296.605 452C296.605 452 296.557 452 296.526 452C296.494 452 296.478 452 296.446 452C291.435 452.949 266.533 495.573 296.446 495.731C296.446 495.731 296.494 495.731 296.526 495.731C296.557 495.731 296.573 495.731 296.605 495.731C326.518 495.573 301.616 452.949 296.605 452.016V452Z" fill="#94BE3E"/>
<mask id="mask21_193_112" style="mask-type:luminance" maskUnits="userSpaceOnUse" x="281" y="452" width="31" height="44">
<path d="M296.605 452C296.605 452 296.557 452 296.526 452C296.494 452 296.478 452 296.446 452C291.435 452.949 266.533 495.573 296.446 495.731C296.446 495.731 296.494 495.731 296.526 495.731C296.557 495.731 296.573 495.731 296.605 495.731C326.518 495.573 301.616 452.949 296.605 452.016V452Z" fill="white"/>
</mask>
<g mask="url(#mask21_193_112)">
<g style="mix-blend-mode:multiply">
<path d="M296.605 452C296.605 452 314.628 489.091 296.605 495.715C308.178 498.356 313.727 489.96 313.917 482.893C314.36 466.988 296.605 452 296.605 452Z" fill="#EDEDED"/>
</g>
</g>
<path d="M77.0987 277.403H69.9682V296.281H77.0987V277.403Z" fill="#BA7E36"/>
<path d="M73.6046 239C73.6046 239 73.5571 239 73.5255 239C73.4939 239 73.4781 239 73.4465 239C68.4346 239.949 43.5335 282.573 73.4465 282.731C73.4465 282.731 73.4939 282.731 73.5255 282.731C73.5571 282.731 73.5729 282.731 73.6046 282.731C103.518 282.573 78.6164 239.949 73.6046 239.016V239Z" fill="#94BE3E"/>
<mask id="mask22_193_112" style="mask-type:luminance" maskUnits="userSpaceOnUse" x="58" y="239" width="31" height="44">
<path d="M73.6046 239C73.6046 239 73.5571 239 73.5255 239C73.4939 239 73.4781 239 73.4465 239C68.4346 239.949 43.5335 282.573 73.4465 282.731C73.4465 282.731 73.4939 282.731 73.5255 282.731C73.5571 282.731 73.5729 282.731 73.6046 282.731C103.518 282.573 78.6164 239.949 73.6046 239.016V239Z" fill="white"/>
</mask>
<g mask="url(#mask22_193_112)">
<g style="mix-blend-mode:multiply">
<path d="M73.6046 239C73.6046 239 91.6283 276.091 73.6046 282.715C85.1777 285.356 90.7271 276.96 90.9168 269.893C91.3595 253.988 73.6046 239 73.6046 239Z" fill="#EDEDED"/>
</g>
</g>
<path d="M0.262751 111.117C-1.56725 110.197 -2.52726 106.777 -1.77726 104.677C-1.02726 102.567 1.31274 101.397 3.19274 102.187C2.82274 98.2673 7.33277 95.0373 10.2828 97.1073C10.4428 93.5273 15.1728 91.6173 17.2828 94.2773C18.5228 91.5273 22.5628 91.3273 24.0128 93.9473C25.0828 90.7173 29.9227 90.5473 31.1627 93.6973C31.5027 91.9873 33.1327 90.7373 34.6627 91.0473C36.1827 91.3473 37.3527 93.1473 37.1627 94.8873C37.9927 93.1773 39.8027 92.1673 41.5027 92.4573C43.2027 92.7473 44.6728 94.3273 45.0228 96.2273C45.9528 94.8373 47.8528 94.4473 49.1528 95.3773C50.4528 96.3073 50.9628 98.4173 50.2628 99.9673C51.7528 99.2673 53.6128 98.5273 54.6528 99.9173C55.6928 101.317 55.8228 103.487 54.9628 105.027C56.2628 104.687 57.7127 105.757 57.9727 107.237C58.2327 108.727 57.2528 110.867 55.9328 111.117H0.252741H0.262751Z" fill="#7CB340"/>
<path d="M39.8328 111.117C38.0028 110.197 37.0427 106.777 37.7927 104.677C38.5427 102.567 40.8828 101.397 42.7628 102.187C42.3928 98.2673 46.9027 95.0373 49.8527 97.1073C50.0127 93.5273 54.7427 91.6173 56.8527 94.2773C58.0927 91.5273 62.1328 91.3273 63.5828 93.9473C64.6528 90.7173 69.4928 90.5473 70.7328 93.6973C71.0728 91.9873 72.7028 90.7373 74.2328 91.0473C75.7528 91.3473 76.9228 93.1473 76.7328 94.8873C77.5628 93.1773 79.3728 92.1673 81.0728 92.4573C82.7728 92.7473 84.2428 94.3273 84.5928 96.2273C85.5228 94.8373 87.4227 94.4473 88.7227 95.3773C90.0227 96.3073 90.5328 98.4173 89.8328 99.9673C91.3228 99.2673 93.1827 98.5273 94.2227 99.9173C95.2627 101.317 95.3928 103.487 94.5328 105.027C95.8328 104.687 97.2828 105.757 97.5428 107.237C97.8028 108.727 96.8227 110.867 95.5027 111.117H39.8227H39.8328Z" fill="#5FA845"/>
<path d="M104.296 852.117C102.466 851.197 101.506 847.777 102.256 845.677C103.006 843.567 105.346 842.397 107.226 843.187C106.856 839.267 111.366 836.037 114.316 838.107C114.476 834.527 119.206 832.617 121.316 835.277C122.556 832.527 126.596 832.327 128.046 834.947C129.116 831.717 133.956 831.547 135.196 834.697C135.536 832.987 137.166 831.737 138.696 832.047C140.216 832.347 141.386 834.147 141.196 835.887C142.026 834.177 143.836 833.167 145.536 833.457C147.236 833.747 148.706 835.327 149.056 837.227C149.986 835.837 151.886 835.447 153.186 836.377C154.486 837.307 154.996 839.417 154.296 840.967C155.786 840.267 157.646 839.527 158.686 840.917C159.726 842.317 159.856 844.487 158.996 846.027C160.296 845.687 161.746 846.757 162.006 848.237C162.266 849.727 161.286 851.867 159.966 852.117H104.286H104.296Z" fill="#7CB340"/>
<path d="M143.866 852.117C142.036 851.197 141.076 847.777 141.826 845.677C142.576 843.567 144.916 842.397 146.796 843.187C146.426 839.267 150.936 836.037 153.886 838.107C154.046 834.527 158.776 832.617 160.886 835.277C162.126 832.527 166.166 832.327 167.616 834.947C168.686 831.717 173.526 831.547 174.766 834.697C175.106 832.987 176.736 831.737 178.266 832.047C179.786 832.347 180.956 834.147 180.766 835.887C181.596 834.177 183.406 833.167 185.106 833.457C186.806 833.747 188.276 835.327 188.626 837.227C189.556 835.837 191.456 835.447 192.756 836.377C194.056 837.307 194.566 839.417 193.866 840.967C195.356 840.267 197.216 839.527 198.256 840.917C199.296 842.317 199.426 844.487 198.566 846.027C199.866 845.687 201.316 846.757 201.576 848.237C201.836 849.727 200.856 851.867 199.536 852.117H143.856H143.866Z" fill="#5FA845"/>
<path d="M289.099 804.403H281.968V823.281H289.099V804.403Z" fill="#BA7E36"/>
<path d="M285.605 766C285.605 766 285.557 766 285.526 766C285.494 766 285.478 766 285.446 766C280.435 766.949 255.533 809.573 285.446 809.731C285.446 809.731 285.494 809.731 285.526 809.731C285.557 809.731 285.573 809.731 285.605 809.731C315.518 809.573 290.616 766.949 285.605 766.016V766Z" fill="#94BE3E"/>
<mask id="mask23_193_112" style="mask-type:luminance" maskUnits="userSpaceOnUse" x="270" y="766" width="31" height="44">
<path d="M285.605 766C285.605 766 285.557 766 285.526 766C285.494 766 285.478 766 285.446 766C280.435 766.949 255.533 809.573 285.446 809.731C285.446 809.731 285.494 809.731 285.526 809.731C285.557 809.731 285.573 809.731 285.605 809.731C315.518 809.573 290.616 766.949 285.605 766.016V766Z" fill="white"/>
</mask>
<g mask="url(#mask23_193_112)">
<g style="mix-blend-mode:multiply">
<path d="M285.605 766C285.605 766 303.628 803.091 285.605 809.715C297.178 812.356 302.727 803.96 302.917 796.893C303.36 780.988 285.605 766 285.605 766Z" fill="#EDEDED"/>
</g>
</g>
<path d="M-5.53363 138H101.703C168.648 138 200.15 220.706 150.169 265.242V265.242C100.907 309.139 130.712 390.678 196.67 392.458L287.554 394.911C330.641 396.074 364.966 431.338 364.966 474.441V474.441C364.966 518.38 329.347 554 285.407 554H122.966C79.0597 554 43.4664 589.593 43.4664 633.5V633.5C43.4664 677.407 79.0597 713 122.966 713H336.466" stroke="white" stroke-width="60" stroke-linecap="round"/>
<ellipse cx="296.887" cy="5.31399" rx="107.147" ry="90.549" transform="rotate(-179.59 296.887 5.31399)" fill="white"/>
<ellipse cx="339.176" cy="89.5946" rx="19.2273" ry="18.4056" transform="rotate(-179.59 339.176 89.5946)" fill="white"/>
<ellipse cx="339.176" cy="89.5946" rx="19.2273" ry="18.4056" transform="rotate(-179.59 339.176 89.5946)" fill="white"/>
<ellipse cx="253.385" cy="90.2948" rx="19.2273" ry="18.4056" transform="rotate(-179.59 253.385 90.2948)" fill="white"/>
<ellipse cx="253.385" cy="90.2948" rx="19.2273" ry="18.4056" transform="rotate(-179.59 253.385 90.2948)" fill="white"/>
<ellipse cx="316.592" cy="53.4423" rx="7.23077" ry="11.6678" transform="rotate(-179.59 316.592 53.4423)" fill="#67220B"/>
<ellipse cx="277.481" cy="53.1623" rx="7.23077" ry="11.6678" transform="rotate(-179.59 277.481 53.1623)" fill="#67220B"/>
<circle cx="340.804" cy="22.8843" r="15.1189" transform="rotate(-179.59 340.804 22.8843)" fill="#FFECDC"/>
<circle cx="252.394" cy="22.251" r="15.1189" transform="rotate(-179.59 252.394 22.251)" fill="#FFECDC"/>
</g>
<defs>
<clipPath id="clip0_193_112">
<rect width="393" height="852" fill="white"/>
</clipPath>
</defs>
</svg>
