<svg width="190" height="199" viewBox="0 0 190 199" fill="none" xmlns="http://www.w3.org/2000/svg">
<g id="Group 50">
<g id="Group 49">
<path id="Vector 24" d="M26.2095 173.788C45.6084 158.995 58.7288 145.637 81.0554 124.767C102.042 105.149 118.914 71.7799 130.077 47.9972C134.724 45.7845 136.085 37.8903 141.726 35.46C148.458 32.5593 159.934 35.7938 171.818 43.1437C179.92 48.1547 180.715 53.6269 179.584 62.5581C164.179 134.061 46.8514 194.188 4.65964 198.676C2.50694 198.905 1.3857 196.813 2.79092 195.167C6.90868 190.341 15.1051 182.256 26.2095 173.788Z" fill="#DA432F"/>
<g id="Group 48">
<path id="Vector" d="M171.647 85.1639C173.54 83.7389 175.513 81.825 177.119 79.2669C185.366 66.1111 182.376 36.9747 162.862 32.2233C150.307 29.1628 137.842 29.1503 126.679 54.8745C127.846 53.4805 132.972 45.9142 139.781 44.4159C146.302 42.9773 147.375 43.6604 149.073 44.4159C147.775 48.9498 146.521 54.8604 146.13 61.8431C145.747 68.7681 146.334 74.7336 147.113 79.3653C150.657 76.5012 156.006 71.4326 160.289 63.6413C163.704 57.4211 165.237 51.6629 165.97 47.6113C165.871 53.4298 166.196 60.402 167.478 68.1585C168.547 74.6382 170.065 80.3381 171.646 85.1711L171.647 85.1639Z" fill="#98BF48"/>
<path id="Vector_2" d="M168.299 34.3787C169.979 29.902 171.642 24.259 172.595 17.6108C173.219 13.2484 173.412 9.25585 173.383 5.76759L159.437 3.67725C160.495 7.08399 161.527 11.5475 161.892 16.8315C162.303 22.8813 161.701 28.0278 160.954 31.8342C163.405 32.6803 165.848 33.5326 168.299 34.3787Z" fill="#98BF48"/>
</g>
</g>
<path id="Vector 25" d="M120.562 82.2055C122.004 80.7643 123.43 79.3177 124.782 77.797C126.221 76.1774 127.159 74.1361 128.422 72.3866C130.336 69.7362 130.21 66.2309 131.985 63.5696" stroke="#E46858" stroke-width="5.82434" stroke-linecap="round"/>
<path id="Vector 26" d="M111.946 91.0225C112.52 90.449 112.983 89.7853 113.549 89.219" stroke="#E46858" stroke-width="5.82434" stroke-linecap="round"/>
</g>
</svg>
