<svg width="336" height="134" viewBox="0 0 336 134" fill="none" xmlns="http://www.w3.org/2000/svg">
<ellipse cx="167.685" cy="162.327" rx="167.029" ry="141.155" transform="rotate(-0.233016 167.685 162.327)" fill="white"/>
<ellipse cx="100.29" cy="31.6925" rx="29.973" ry="28.6921" transform="rotate(-0.233016 100.29 31.6925)" fill="white"/>
<ellipse cx="100.29" cy="31.6925" rx="29.973" ry="28.6921" transform="rotate(-0.233016 100.29 31.6925)" fill="white"/>
<ellipse cx="234.006" cy="29.0992" rx="29.973" ry="28.6921" transform="rotate(-0.233016 234.006 29.0992)" fill="white"/>
<ellipse cx="234.006" cy="29.0992" rx="29.973" ry="28.6921" transform="rotate(-0.233016 234.006 29.0992)" fill="white"/>
<ellipse cx="136.127" cy="87.6503" rx="11.2719" ry="18.1887" transform="rotate(-0.233016 136.127 87.6503)" fill="#67220B"/>
<ellipse cx="197.097" cy="87.4023" rx="11.2719" ry="18.1887" transform="rotate(-0.233016 197.097 87.4023)" fill="#67220B"/>
<circle cx="98.92" cy="135.708" r="23.5685" transform="rotate(-0.233016 98.92 135.708)" fill="#FFECDC"/>
<circle cx="236.743" cy="135.147" r="23.5685" transform="rotate(-0.233016 236.743 135.147)" fill="#FFECDC"/>
</svg>
