<svg width="187" height="195" viewBox="0 0 187 195" fill="none" xmlns="http://www.w3.org/2000/svg">
<g id="Layer_1" clip-path="url(#clip0_387_1314)">
<path id="Vector" d="M155.218 43.1177C162.2 44.2038 170.128 47.6637 177.312 45.3985C186.109 45.0882 188.886 52.396 184.263 59.3625C179.639 66.329 158.429 75.1419 150.563 71.8215C138.662 65.7084 140.276 43.459 155.218 43.1177Z" fill="#E46D24"/>
<g id="Group">
<path id="Vector_2" d="M155.218 43.1178L154.21 44.7159C142.154 46.6554 140.82 63.9087 150.625 70.0374L150.579 71.8372C148.639 72.3492 138.849 82.9308 139.004 83.7532C250.561 189.74 14.6467 252.702 0.0310293 119.563C-0.186189 114.102 0.574075 94.7227 7.61816 93.6676C9.20075 93.4349 18.4325 98.6171 21.7529 99.3929C40.0923 103.722 56.2285 89.9128 73.7611 87.3217C4.82535 20.946 133.9 -46.3916 155.218 43.1178Z" fill="#FFC73B"/>
<path id="Vector_3" d="M87.5699 113.946C114.769 111.914 126.204 146.048 101.72 159.128C80.3397 170.547 49.2154 162.743 37.1443 141.393C26.1437 117.825 40.1233 119.641 59.3005 120.587C68.8581 119.734 78.152 114.629 87.5544 113.931L87.5699 113.946Z" fill="#C88A13"/>
<path id="Vector_4" d="M127.027 35.6236C135.855 44.3589 121.86 58.7884 115.763 48.0516C110.798 39.3163 120.091 28.7812 127.027 35.6236Z" fill="#5D3316"/>
</g>
</g>
<defs>
<clipPath id="clip0_387_1314">
<rect width="186.482" height="195" fill="white"/>
</clipPath>
</defs>
</svg>
