<svg width="257" height="256" viewBox="0 0 257 256" fill="none" xmlns="http://www.w3.org/2000/svg">
<path d="M213.041 149.212C215.098 149.317 217.393 149.209 219.361 149.877C220.217 150.168 220.945 150.642 221.754 151.023C222.466 151.358 223.719 152.08 224.055 152.816C225.001 154.881 225.636 157.003 225.506 159.284C225.363 161.781 221.931 163.527 219.851 164.255C218.373 164.773 216.919 164.847 215.369 164.847" stroke="#C1C1C1" stroke-width="8" stroke-linecap="round"/>
<path d="M178.944 167.508C180.031 169.709 180.921 171.747 181.512 174.115C181.625 174.564 181.665 175.149 181.854 175.565C182.124 176.159 182.124 176.868 182.4 177.487C182.86 178.523 183.254 179.469 184.1 180.315" stroke="#C1C1C1" stroke-width="8" stroke-linecap="round"/>
<path d="M51.0176 191.976C49.3024 197.122 48.8039 202.615 47.5939 207.895C47.0157 210.418 46.1918 213.615 46.8174 216.207C47.8179 220.352 48.3725 224.54 49.8264 228.578C50.2939 229.877 50.9193 231.221 51.4941 232.479C52.0318 233.655 51.88 235.043 52.253 236.255C52.4349 236.847 52.7648 237.614 52.7648 238.197C52.7648 238.91 52.7739 239.962 53.0825 240.579" stroke="#C1C1C1" stroke-width="8" stroke-linecap="round"/>
<ellipse cx="15.8823" cy="15.0585" rx="15.8823" ry="15.0585" transform="matrix(-0.986018 0.16664 0.16664 0.986018 127.765 114.057)" fill="#794E40"/>
<path d="M68.7646 35.4564C52.838 8.62004 11.0963 36.7446 28.6234 62.606C25.4337 67.1137 20.621 77.6949 19.4792 82.6296C19.57 84.2061 21.7169 84.4234 21.8037 84.8804C11.1885 114.615 22.8937 148.075 49.8842 163.789C49.1619 166.541 47.5695 165.102 46.2255 165.079C18.6837 175.024 4.97065 210.513 32.2415 229.792C33.0647 236.952 38.6537 242.971 46.011 243.817C46.5165 243.898 49.3239 244.291 49.4993 244.258C51.0393 243.954 49.2001 238.622 49.0225 237.384C47.7148 224.573 44.821 208.802 49.4564 196.588C54.7941 193.899 49.8792 209.083 50.5751 211.673C50.2539 223.4 51.6055 237.862 55.1691 249.025C52.2447 260.573 49.7354 276.361 51.3485 288.402C53.5263 304.154 74.2563 303.795 85.6278 298.908C98.5319 293.469 100.167 274.356 106.714 263.642L138.455 259.886C139.296 260.195 144.873 270.917 145.974 272.705C153.259 284.535 158.446 292.188 173.802 292.039C182.429 291.953 202.208 288.32 201.001 276.284C200.655 272.822 197.771 270.889 197.08 268.64C196.086 257.351 192.69 246.195 188.804 235.561C194.271 214.936 187.656 193.385 181.019 174.216C183.754 170.666 186.218 180.229 187.331 181.968C189.104 184.969 192.293 182.609 194.766 181.93C201.35 180.285 207.984 178.257 213.888 174.973C221.997 176.84 230.332 174.947 235.114 167.502C240.12 159.461 236.822 152.904 231.172 146.637C236.613 145.778 244.579 141.545 241.262 135.012C237.585 127.767 224.124 133.151 218.251 134.479C205.648 137.341 193.141 140.248 180.573 143.199C177.873 143.424 166.078 148.925 166.088 144.428C166.421 142.249 175.304 141.045 177.301 140.492C181.655 139.455 186.133 138.471 188.331 134.123C205.206 111.252 201.432 76.8301 183.592 55.689C183.197 54.6122 185.02 54.3195 183.74 52.3639C179.651 47.0299 173.143 40.0597 167.337 36.3608C173.749 6.1724 126.867 -3.27351 120.608 26.1863C102.928 24.3713 84.8778 29.0621 68.7651 35.4617L68.7646 35.4564ZM138.79 80.8267C144.395 84.1769 138.538 86.5206 135.03 87.8018C133.91 88.3738 132.29 90.2704 130.898 90.0297C125.079 86.9867 136.315 81.0789 138.79 80.8214L138.79 80.8267ZM80.4979 115.75C75.0494 110.41 72.6641 92.9353 81.8243 90.6176C97.2012 87.1122 98.3801 129.275 80.4979 115.75ZM142.005 105.585C135.804 112.328 127.464 96.1189 135.925 92.8236C142.044 90.4442 145.843 101.405 142.005 105.585ZM126.527 122.388C134.066 126.327 121.672 132.183 117.845 132.553C114.449 133.142 101.066 134.072 103.373 127.511C104.608 123.839 110.916 130.135 119.905 126.022C121.439 125.421 125.567 122.252 126.527 122.388ZM213.719 148.349C214.231 147.3 219.926 146.833 221.192 146.939C228.61 147.574 229.6 161.535 223.521 164.847C221.392 166.007 214.647 167.781 213.566 164.903C212.761 162.756 216.636 162.939 217.686 162.66C223.42 162.373 226.473 155.179 221.712 151.488C218.737 149.11 213.148 153.538 213.719 148.344L213.719 148.349Z" fill="white"/>
<path d="M28.5317 62.8573L169.942 36.8072C171.065 36.6003 172.22 36.9311 173.063 37.7011L185.356 48.9275C187.579 50.9574 186.526 54.6541 183.567 55.2078L21.3483 85.5642C18.3217 86.1305 15.9977 82.9241 17.478 80.224L25.9935 64.6915C26.5208 63.7296 27.4529 63.056 28.5317 62.8573Z" fill="#FFB433"/>
<ellipse cx="10.6326" cy="15.0585" rx="10.6326" ry="15.0585" transform="matrix(-0.986018 0.16664 0.16664 0.986018 93.3217 87.5845)" fill="#794E40"/>
<ellipse cx="10.6326" cy="15.0585" rx="10.6326" ry="15.0585" transform="matrix(-0.986018 0.16664 0.16664 0.986018 144.229 76.7812)" fill="#794E40"/>
<ellipse cx="10.6326" cy="15.0585" rx="10.6326" ry="15.0585" transform="matrix(-0.986018 0.16664 0.16664 0.986018 144.229 76.7812)" fill="#794E40"/>
</svg>
