<svg width="173" height="162" viewBox="0 0 173 162" fill="none" xmlns="http://www.w3.org/2000/svg">
<g id="Layer_1" clip-path="url(#clip0_456_344)">
<path id="Vector" d="M0.000424694 81.343C3.31304 92.3851 5.49314 104.73 18.9135 107.023C30.8899 114.243 25.0291 133.779 47.4813 132.363C69.3955 125.341 65.4317 132.759 84.2032 139.413C99.7471 141.168 102.239 130.664 111.27 129.503C119.623 128.428 123.841 135.308 135.082 130.749C147.653 125.681 146.662 112.997 152.806 107.419C158.95 101.842 171.464 102.21 169.935 87.0056C173.049 184.742 -1.30197 188.876 0.000424694 81.343Z" fill="#A56A16"/>
<g id="Group">
<path id="Vector_2" d="M171.294 94.084C168.745 100.681 162.885 106.145 153.739 110.506C145.246 133.439 134.317 138.252 110.675 132.448C92.4702 146.52 81.4281 144.255 63.7608 132.278C39.7514 138.054 30.4648 136.355 19.8757 111.383C6.65355 107.08 0.0283161 97.0569 3.16245e-06 81.3432C-0.0283098 -36.3255 190.065 -21.348 171.294 94.084Z" fill="#FE8880"/>
<path id="Vector_3" d="M53.7951 81.3432C46.3205 41.9316 127.296 44.3665 117.499 82.7589C103.23 106.259 64.7522 106.938 53.7951 81.3432Z" fill="#FEF9EB"/>
<path id="Vector_4" d="M117.499 82.7593C119.254 47.5096 53.653 46.1223 53.7945 81.3437C30.7194 24.3779 145.076 30.6068 117.499 82.7593Z" fill="#724D16"/>
<path id="Vector_5" d="M36.4383 57.6454C43.8563 71.8585 19.1957 62.8267 19.8469 55.2105C21.3475 50.1708 34.2865 55.4653 36.4383 57.6454Z" fill="#658ED6"/>
<path id="Vector_6" d="M67.4693 9.34347C72.056 7.87119 85.6745 14.638 81.4842 20.5837C77.8318 25.7933 58.2676 12.288 67.4693 9.34347Z" fill="#658DD7"/>
<path id="Vector_7" d="M126.984 104.277C140.32 108.354 122.114 118.66 116.027 116.112C109.402 111.384 122.511 104.334 126.984 104.277Z" fill="#699830"/>
<path id="Vector_8" d="M53.4554 104.22C61.8077 103.399 61.4963 113.79 50.1427 115.262C36.6941 117.018 42.9796 105.268 53.4554 104.22Z" fill="#6A972F"/>
<path id="Vector_9" d="M49.5476 24.7172C52.9168 31.0027 37.7411 42.611 34.6266 36.0424C31.7387 29.8985 47.1976 22.3672 49.5476 24.7172Z" fill="#669730"/>
<path id="Vector_10" d="M152.862 54.5026C155.58 58.3531 142.386 74.3217 137.969 65.7995C136.1 62.2037 149.804 50.1424 152.862 54.5026Z" fill="#638DD6"/>
<path id="Vector_11" d="M138.167 81.4285C142.527 80.2394 155.24 91.3381 150.115 94.8772C144.566 98.6711 130.975 83.3821 138.167 81.4285Z" fill="#FCCE25"/>
<path id="Vector_12" d="M20.159 85.3072C16.4783 71.5188 36.3824 83.6367 35.4197 90.5168C33.9474 96.1228 20.8385 86.4397 20.159 85.3072Z" fill="#FDCF23"/>
<path id="Vector_13" d="M84.4008 111.185C89.5821 109.6 100.794 120.5 94.1122 125.228C89.6954 125.059 77.0678 113.422 84.4008 111.185Z" fill="#FCCF25"/>
<path id="Vector_14" d="M124.634 30.4367C127.493 26.388 140.092 36.524 138.111 40.3179C133.807 48.6703 121.887 34.3439 124.634 30.4367Z" fill="#D14123"/>
<path id="Vector_15" d="M108.552 13.6189C120.415 16.1671 104.843 26.1332 101.248 27.5489C94.7922 26.1899 103.06 14.0719 108.552 13.6189Z" fill="#FCD023"/>
</g>
</g>
<defs>
<clipPath id="clip0_456_344">
<rect width="172.596" height="161.157" fill="white"/>
</clipPath>
</defs>
</svg>
