<svg width="171" height="187" viewBox="0 0 171 187" fill="none" xmlns="http://www.w3.org/2000/svg">
<g id="Apple logo" clip-path="url(#clip0_370_437)">
<path id="Vector" d="M79.9039 46.2276C82.4718 47.0742 83.6993 53.9172 81.3148 55.3986C83.1631 60.0124 81.0608 60.8448 74.9939 57.9101C44.6308 52.3087 94.7045 77.4373 106.133 57.1482C100.546 57.5573 94.9443 58.3616 89.3288 59.5609C85.9708 56.2311 85.5194 48.6262 90.2883 46.3123C100.743 47.2717 109.35 43.3635 118.126 38.5804C120.27 37.1836 121.865 37.1413 122.923 38.4817C209.921 49.9242 167.974 213.845 80.9197 182.368C75.0644 182.791 69.0962 185.401 63.2268 185.839C-19.4957 186.572 -25.6897 -2.95718 79.8898 46.2558L79.9039 46.2276Z" fill="#CB331F"/>
<path id="Vector_2" d="M86.9585 31.4132C92.0943 17.0782 102.846 4.04131 118.535 1.26179C122.288 0.598651 140.701 0.147156 141.9 3.64625C143.41 8.04833 137.23 21.6496 134.521 25.7131L129.718 32.4376L122.937 38.4679C113.145 42.0657 100.249 49.8963 88.3695 47.6389C85.9709 43.4484 85.2795 35.9423 86.9585 31.4132Z" fill="#7CB533"/>
<path id="Vector_3" d="M86.9584 31.4131C88.1436 40.2455 88.5669 49.3318 88.3694 58.2207C90.0766 62.2559 81.9496 63.5681 80.7645 59.3212C83.3888 51.5188 77.3783 38.0585 74.5987 30.0163C73.3007 26.9546 67.2337 17.191 67.9956 14.9617C68.56 13.2968 78.6058 8.58435 80.5952 8.41504C86.1119 8.66901 85.7027 26.7429 86.9584 31.4272V31.4131Z" fill="#6B3E21"/>
<path id="Vector_4" d="M88.3698 58.2206C91.8689 59.166 111.664 50.6299 106.401 59.6739C99.2903 69.5927 68.8285 68.5486 63.989 57.5152C66.3594 52.7039 77.5762 57.0072 81.3011 58.912C81.3011 57.7409 81.3152 56.5557 81.3011 55.3847C82.7966 56.3864 81.1035 59.5187 83.1635 60.2241C86.9447 61.5081 87.4386 58.5028 88.3557 58.2065L88.3698 58.2206Z" fill="#942A00"/>
</g>
<defs>
<clipPath id="clip0_370_437">
<rect width="169.96" height="185.565" fill="white" transform="translate(0.892334 0.795898)"/>
</clipPath>
</defs>
</svg>
