<svg width="508" height="631" viewBox="0 0 508 631" fill="none" xmlns="http://www.w3.org/2000/svg">
<ellipse cx="243.913" cy="215.24" rx="205.62" ry="174.478" transform="rotate(-7.21322 243.913 215.24)" fill="white"/>
<ellipse cx="119.943" cy="75.195" rx="46.7138" ry="44.7175" transform="rotate(-7.21322 119.943 75.195)" fill="white"/>
<ellipse cx="119.943" cy="75.195" rx="46.7138" ry="44.7175" transform="rotate(-7.21322 119.943 75.195)" fill="white"/>
<ellipse cx="317.202" cy="50.229" rx="46.7138" ry="44.7175" transform="rotate(-7.21322 317.202 50.229)" fill="white"/>
<ellipse cx="317.202" cy="50.229" rx="46.7138" ry="44.7175" transform="rotate(-7.21322 317.202 50.229)" fill="white"/>
<ellipse cx="210.739" cy="153.449" rx="17.5676" ry="28.3477" transform="rotate(-7.21322 210.739 153.449)" fill="#67220B"/>
<ellipse cx="293.128" cy="143.022" rx="17.5676" ry="28.3477" transform="rotate(-7.21322 293.128 143.022)" fill="#67220B"/>
<circle cx="138.196" cy="222.595" r="36.7322" transform="rotate(-7.21322 138.196 222.595)" fill="#FFECDC"/>
<circle cx="372.598" cy="198.563" r="36.7322" transform="rotate(-7.21322 372.598 198.563)" fill="#FFECDC"/>
<rect x="53.1177" y="313.382" width="361.732" height="291.462" rx="145.731" transform="rotate(-6.60537 53.1177 313.382)" fill="white"/>
<path d="M410.757 319.802C392.49 331.543 386.606 312.197 364.899 312.815C350.683 313.219 338.651 309.515 329.232 320.171C318.275 332.565 333.613 359.85 337.315 366.007C337.825 366.856 338.386 367.62 339.038 368.366C344.341 374.432 370.809 403.377 393.945 404.54C415.871 405.642 434.47 402.09 453.503 391.148C469.496 381.954 479.929 366.408 487.075 349.401C494.866 330.857 496.014 312.206 481.589 298.188C468.748 285.708 451.832 281.572 436.368 290.602C423.039 298.386 423.742 311.456 410.757 319.802Z" fill="white" stroke="white" stroke-width="15.9705" stroke-linecap="round"/>
<path d="M79.0294 404.226C90.4581 389.861 100.726 403.612 118.104 397.139C129.486 392.9 140.27 392.527 144.853 381.464C150.882 366.909 124.284 346.487 124.284 346.487C124.284 346.487 89.7676 326.164 68.4927 332.256C50.4473 337.424 36.4179 345.372 24.1422 359.312C13.8275 371.026 9.81761 386.255 8.88252 401.738C7.86289 418.622 12.2461 433.759 27.9036 440.923C41.8424 447.301 56.7004 445.925 66.6337 434.488C75.1965 424.628 70.9054 414.437 79.0294 404.226Z" fill="white" stroke="white" stroke-width="15.9705" stroke-linecap="round"/>
<rect x="119.786" y="528.771" width="97.4202" height="101.413" rx="48.7101" fill="white"/>
<rect x="331.396" y="501.622" width="97.4202" height="101.413" rx="48.7101" fill="white"/>
</svg>
