<svg width="393" height="852" viewBox="0 0 393 852" fill="none" xmlns="http://www.w3.org/2000/svg">
<g clip-path="url(#clip0_302_178)">
<rect width="393" height="852" fill="#7CC8FF"/>
<ellipse cx="197" cy="719.024" rx="153.828" ry="130.53" transform="rotate(-7.21322 197 719.024)" fill="white"/>
<ellipse cx="104.255" cy="614.254" rx="34.9473" ry="33.4538" transform="rotate(-7.21322 104.255 614.254)" fill="white"/>
<ellipse cx="104.255" cy="614.254" rx="34.9473" ry="33.4538" transform="rotate(-7.21322 104.255 614.254)" fill="white"/>
<ellipse cx="251.828" cy="595.577" rx="34.9473" ry="33.4538" transform="rotate(-7.21322 251.828 595.577)" fill="white"/>
<ellipse cx="251.828" cy="595.577" rx="34.9473" ry="33.4538" transform="rotate(-7.21322 251.828 595.577)" fill="white"/>
<circle cx="102.976" cy="742.996" r="27.4799" transform="rotate(-7.21322 102.976 742.996)" fill="#FFECDC"/>
<circle cx="293.756" cy="736.36" r="27.4799" transform="rotate(-7.21322 293.756 736.36)" fill="#FFECDC"/>
<rect x="65.1213" y="777.138" width="270.618" height="218.047" rx="109.024" transform="rotate(-0.41407 65.1213 777.138)" fill="white"/>
<path d="M304.148 618.626L77.7984 635.796C76.7474 635.876 75.7969 636.45 75.2374 637.343L57.3492 665.903C55.9069 668.205 57.6924 671.171 60.4022 670.973L327.9 651.478C330.64 651.278 331.964 648.024 330.141 645.968L306.882 619.733C306.194 618.957 305.182 618.547 304.148 618.626Z" fill="#FFB433" stroke="#FFB433" stroke-width="1.65896"/>
<path d="M100.656 840.701V840.701C84.2217 847.765 65.9089 849.179 48.5852 844.721L46.3043 844.134" stroke="white" stroke-width="82.948" stroke-linecap="round"/>
<path d="M357.952 834.431V834.431C340.722 839.24 322.385 838.2 305.81 831.472L303.628 830.586" stroke="white" stroke-width="82.948" stroke-linecap="round"/>
<path fill-rule="evenodd" clip-rule="evenodd" d="M482.668 366H431.698L431.572 366L431.446 366H313.487L313.447 366C286.138 366 264 343.862 264 316.552C264 289.243 286.138 267.105 313.447 267.105C319.16 267.105 324.646 268.074 329.751 269.856C339.574 252.056 358.526 240 380.293 240C399.579 240 416.654 249.463 427.128 263.999C428.593 263.873 430.075 263.809 431.572 263.809C450.055 263.809 466.246 273.622 475.218 288.323C477.63 287.859 480.12 287.616 482.668 287.616C504.313 287.616 521.859 305.163 521.859 326.808C521.859 348.452 504.313 365.999 482.668 365.999V366Z" fill="white" fill-opacity="0.58"/>
<path fill-rule="evenodd" clip-rule="evenodd" d="M117.668 219H66.6984L66.5722 219L66.446 219H-51.5132L-51.5525 219C-78.8616 219 -101 196.862 -101 169.552C-101 142.243 -78.8616 120.105 -51.5525 120.105C-45.84 120.105 -40.3538 121.074 -35.2491 122.856C-25.4264 105.056 -6.47446 93 15.2934 93C34.5786 93 51.6536 102.463 62.1282 116.999C63.5927 116.873 65.075 116.809 66.5722 116.809C85.055 116.809 101.246 126.622 110.218 141.323C112.63 140.859 115.12 140.616 117.668 140.616C139.313 140.616 156.859 158.163 156.859 179.808C156.859 201.452 139.313 218.999 117.668 218.999V219Z" fill="white" fill-opacity="0.58"/>
<path d="M224 706L263 704" stroke="#67220B" stroke-width="8" stroke-linecap="round"/>
<path d="M224 706L263 704" stroke="#67220B" stroke-width="8" stroke-linecap="round"/>
<path d="M224 706L263 704" stroke="#67220B" stroke-width="8" stroke-linecap="round"/>
<path d="M139.089 713.11L177.911 708.89" stroke="#67220B" stroke-width="8" stroke-linecap="round"/>
<path d="M139.089 713.11L177.911 708.89" stroke="#67220B" stroke-width="8" stroke-linecap="round"/>
<path d="M139.089 713.11L177.911 708.89" stroke="#67220B" stroke-width="8" stroke-linecap="round"/>
</g>
<rect x="0.5" y="0.5" width="392" height="851" stroke="#67220B"/>
<defs>
<clipPath id="clip0_302_178">
<rect width="393" height="852" fill="white"/>
</clipPath>
</defs>
</svg>
